<?xml version="1.0" encoding="utf-8"?>
<!-- Generator: Adobe Illustrator 22.1.0, SVG Export Plug-In . SVG Version: 6.00 Build 0)  -->
<svg version="1.1" id="Layer_1" xmlns="http://www.w3.org/2000/svg" xmlns:xlink="http://www.w3.org/1999/xlink" x="0px" y="0px"
	 viewBox="0 0 734 375" style="enable-background:new 0 0 734 375;" xml:space="preserve">
<style type="text/css">
	.st0{fill:#01AEF0;}
	.st1{fill:#FFFFFF;}
</style>
<rect y="0" class="st0" width="734" height="375"/>
<path class="st1" d="M56.2,223.6L56,224h131.9l-0.1-0.4c-6.4-17.2-19-27.8-30.3-34.2c-5.6-3.2-10.9-5.4-14.8-6.7
	c-2-0.7-3.6-1.2-4.8-1.5c-0.6-0.2-1.1-0.3-1.4-0.4c-0.2,0-0.3-0.1-0.4-0.1c-0.1,0-0.2-0.1-0.2-0.1l-0.2,0.5
	c15.1,7.3,25.2,23.8,27.3,38h-2.8c-0.9-1.6-1.7-4.1-2.9-7c-1.7-4.6-4.2-10.4-8.8-16.1c-4.6-5.7-11.5-11.3-22-15.5h-0.1h-3.6V219
	h-3.3v-38h-3.6l0,0c-12.8,4.3-20.2,12.9-24.7,20.8c-2.2,4-3.8,7.8-4.9,10.8c-0.6,1.5-1,2.8-1.4,3.8c-0.4,0.9-0.7,1.7-1,2h-3.7
	c4.1-15,12.1-29.6,26.5-37.5l-0.2-0.5c-12.8,5.1-23.1,10.5-31.2,17.3C66.9,204.6,60.8,212.8,56.2,223.6 M48.3,260.1l0.3,2.6
	c1.9,18.5,10.7,35.1,23.8,46.9c13.1,11.9,30.5,19.1,49.5,19.1s36.1-7.3,48.9-19.2c12.9-11.9,21.5-28.4,23.5-46.8l0.3-2.6H192H48.3z
	 M167.6,306.1c-7.7,7.1-17,12.5-27.4,15.4c2.1-1.6,4.2-3.5,6.1-5.6c4.2-4.6,7.7-10.3,10.7-17l-4.1-1.8c-3.7,8.5-8.4,15.1-13.8,19.6
	c-2.7,2.2-5.5,4-8.5,5.1c-2.2,0.8-4.4,1.4-6.7,1.6l0.1-26h-4.4l-0.1,26.1c-2.6-0.2-5.1-0.8-7.6-1.7c-4.5-1.8-8.8-4.9-12.6-9.1
	c-3.8-4.2-7.2-9.6-10-15.8l-4,1.8c3.9,8.8,9.1,16.1,15.2,21.2c0.5,0.4,1,0.8,1.5,1.2c-9.9-3-18.9-8.2-26.4-15
	c-11.6-10.6-19.6-25-21.9-41.4H77c0,0.3,0,0.7,0,1.1c0,1.5,0.1,3.3,0.6,5.8l4.3-0.9c-0.5-2.2-0.5-3.6-0.5-4.9c0-0.4,0-0.7,0-1.1
	h38.2v6.4h4.4v-6.4h37.8c-0.1,0.8-0.1,1.4-0.2,2.1c-0.1,1-0.3,1.9-0.8,3.2l4.1,1.5c0.6-1.6,0.9-2.9,1-4.1c0.1-0.9,0.2-1.8,0.2-2.7
	h23.3C186.9,281.1,179,295.5,167.6,306.1 M97.4,255.6v0.9H108v-0.3l0,0c0-0.1,0.1-0.7,0.4-1.4h10c0.1,0.3,0.3,1,0.6,1.5l0.1,0.1
	h11.3v-0.9l-10.6-27.2h-10l0.2,0.4c0.9,2.1,1.2,2.8,1.4,3.5c0.2,0.6,0.5,1.2,1.2,2.7h-7.5L97.4,255.6z M113.2,238.5
	c0.7,2.1,2.4,7.2,2.9,8.6h-5.3C111.1,245.8,112.5,240.9,113.2,238.5 M75.4,228.4v28.1h21.5v-7.2H84.8v-20.9L75.4,228.4L75.4,228.4z
	 M63.2,248.6c-0.6,0.4-1.6,0.6-2.6,0.6h-7.2l-0.1,7.2h12.4c2.1,0,4.3-0.9,5.9-2.3c1.6-1.5,2.7-3.5,2.7-5.8c0-0.1,0-0.2,0-0.3
	c-0.1-2-0.8-3.7-1.9-5.4c-1.6-2.5-3.9-4.7-5.8-6.9c-0.9-1.1-1.8-2.2-2.4-3.3s-1-2.2-1-3.4c0-0.1,0-0.2,0-0.3v-0.3h-8.8v0.3
	c0,0.7,0,1.1,0,1.4s0,0.5,0,0.6c0,0.2,0,0.4,0,0.7c0,1.3,0.6,2.7,1.5,4.2c1.4,2.2,3.4,4.6,5.1,6.6c0.8,1,1.6,1.9,2.2,2.7
	c0.3,0.4,0.5,0.7,0.7,1s0.2,0.5,0.2,0.6s0,0.1,0,0.2C64.2,247.6,63.8,248.2,63.2,248.6 M169.2,254.1c-0.1,0.1-0.3,0.1-0.4,0.1h-0.1
	l0,0h-0.2v2.1h13.2v-2.2h-0.3l0,0c-0.1,0-0.4,0-0.7-0.2c-0.2-0.1-0.3-0.2-0.4-0.3c-0.1-0.1-0.2-0.3-0.2-0.5v-21.8
	c0-0.2,0.1-0.3,0.2-0.4c0.2-0.2,0.5-0.3,0.7-0.4c0.1,0,0.3-0.1,0.3-0.1h0.1l0,0h0.2v-2.2h-13.2v2.5h0.3l0,0c0.1,0,0.4,0,0.7,0.1
	c0.2,0,0.3,0.1,0.4,0.2c0.1,0.1,0.2,0.2,0.2,0.3v21.8c0,0.1-0.1,0.2-0.2,0.4C169.8,253.8,169.5,254,169.2,254.1 M111.3,178.1
	c0.5,0.4,1.8,0.6,3.5,0.8s3.8,0.3,6,0.3c2.9,0,5.8-0.1,8.1-0.4c1.1-0.1,2.1-0.3,2.8-0.5c0.3-0.1,0.6-0.2,0.8-0.3s0.3-0.3,0.3-0.4
	c0-0.2-0.2-0.4-0.5-0.6c-1-0.5-3.5-1.2-8.2-1.9v-3.3l-1-1.7v-1.5c0.6-0.3,0.9-0.7,1-1c0-0.2,0.1-0.3,0.1-0.4c0-0.1,0-0.1,0-0.1l0,0
	L124,167l0,0l0,0c0,0,0,0-0.2,0.1c-0.3,0.2-1,0.6-1.6,0.6c-0.4,0-0.8-0.1-1.1-0.3c-0.3-0.3-0.5-0.6-0.5-1.2v-0.1
	c0-1.1,0.7-1.5,1.4-1.5l0,0c0.3,0,0.8,0.3,1.1,0.5c0.2,0.1,0.3,0.3,0.4,0.4c0.1,0.1,0.2,0.2,0.2,0.2l0,0h0.5l0.1-0.3l0,0l0,0
	c0,0-0.8-1.7-2.4-1.7h-0.1c-1.3,0.1-2.8,1.1-2.8,2.7c0,1.1,0.7,2,1.6,2.4v1.4l-0.9,1.8v3.3c-3,0.6-5.1,1.1-6.4,1.5
	c-0.7,0.2-1.2,0.4-1.5,0.6C111.5,177.6,111.3,177.8,111.3,178.1C111.1,177.8,111.2,178,111.3,178.1 M170.5,154.2c0,0,0,0.3,0,0.7
	c0,0.9,0.1,2.7,0.8,4.6c0.7,1.8,2,3.8,4.3,5.1v33.3l0.1,0.1c7.9,7.9,13.2,16.7,14.8,23.6h0.4V164c2.6-1.7,3.9-4.1,4.5-6.1
	c0.7-2,0.7-3.6,0.7-3.8V154h-5.2v-23.5c2.5-1.7,3.8-4,4.5-5.9c0.7-2,0.7-3.6,0.7-3.8l0,0v-0.2h-5.2V91l-6.8-36.5
	c0.8-0.1,1.5-0.4,2-0.8c0.3-0.2,0.5-0.4,0.7-0.6c0.2-0.2,0.3-0.4,0.3-0.6c0.1-0.3,0.1-0.5,0.1-0.6s0-0.2-0.1-0.3l0,0l-0.3-0.1
	l-0.1-0.1l-0.1,0.1h-0.1c-0.3,0.2-1.4,1-2.5,1c-0.6,0-1.2-0.2-1.6-0.6c-0.4-0.4-0.7-0.8-0.7-1.5c0-0.1,0-0.1,0-0.2
	c0.1-0.6,0.3-1,0.5-1.3c0.3-0.3,0.6-0.5,1-0.7c0.1-0.1,0.2-0.1,0.3-0.1c0.5,0,1.1,0.3,1.7,0.6c0.3,0.2,0.5,0.3,0.7,0.4
	c0.1,0.1,0.1,0.1,0.2,0.1h0.1l0,0h0.8l0.1-0.5v-0.1v-0.1c0,0-0.3-0.6-1-1.3c-0.6-0.6-1.6-1.3-2.8-1.3c-0.1,0-0.1,0-0.2,0
	c-1.1,0-2.1,0.4-2.8,1.1c-0.7,0.7-1.2,1.7-1.4,3c0,0.2,0,0.3,0,0.5c0,1,0.5,1.8,1.3,2.5c0.7,0.6,1.5,1,2.3,1.2l-7,36.5v29.5
	l-5.1,0.1v0.2c0,0,0,0.3,0,0.7c0,0.9,0.1,2.7,0.8,4.6c0.7,1.8,2,3.8,4.3,5.1v22.8l-5.1,0.1L170.5,154.2z M153.1,237.7h-8.8v18.7h8.8
	V237.7z M156.6,236.9c0.4,0.2,0.7,0.7,0.9,1.7c0,5.2,0,17.6,0,17.6v0.3h9.9V238c0-2-0.6-4.3-1.8-6.3c-1.2-1.9-3.1-3.4-5.6-3.4
	c-4.3,0-8.7,0-12.7,0c-8.1,0-14.9,0-15.9,0h-0.3v28.1h8.8v-19.8c7.5,0,13.4,0,15.8,0C155.8,236.6,156.2,236.7,156.6,236.9
	 M145.6,285.9h7.7V282h-7.7v-3.9h9.4v-3.9h-15.4v19.3h16v-3.9h-9.9L145.6,285.9L145.6,285.9L145.6,285.9z M129.6,293.6h6.1v-19.3
	h-6.1V293.6z M157.7,293.6h6.1v-7.2h6.6v-3.9h-6.6v-4.4h8.8v-3.9h-14.9L157.7,293.6L157.7,293.6z M194.2,237.2
	c1.2-1.1,2.8-1.7,4.9-1.7h6.3v-7.2h-8c-2.8,0-6.5,0.7-9.6,2.8s-5.4,5.6-5.6,11.3c0,0.1,0,0.3,0,0.4c0,4.2,1.5,7.6,4.1,10
	s6.2,3.6,10.5,3.6h8.5v-7.2H205c-1.6,0-3.1-0.1-4.5-0.1c-0.5,0-1,0-1.5,0c-1.9-0.2-3.6-0.8-4.9-1.9c-1.3-1.1-2-2.6-2.1-4.9
	c0-0.1,0-0.3,0-0.4C192.3,240,193,238.3,194.2,237.2 M51.2,254.2h-0.3l0,0c-0.1,0-0.4,0-0.7-0.1c-0.1-0.1-0.3-0.1-0.4-0.3
	c-0.1-0.1-0.2-0.3-0.2-0.4v-21.8c0-0.2,0.1-0.3,0.2-0.4c0.2-0.2,0.5-0.3,0.7-0.4c0.1,0,0.2-0.1,0.3-0.1h0.1l0,0h0.2v-2.1H38v0.3v2.2
	h0.3l0,0c0.1,0,0.4,0,0.7,0.1c0.1,0,0.3,0.1,0.4,0.2c0.1,0.1,0.2,0.2,0.2,0.3v21.8c0,0.1-0.1,0.3-0.2,0.4c-0.2,0.2-0.5,0.4-0.8,0.5
	c-0.1,0.1-0.3,0.1-0.4,0.1h-0.1l0,0h-0.2v2.2h13.2L51.2,254.2z M53.5,164.1l0.1,55.7l0.4,0.1c3-7.7,6.8-14,14.7-21.9l0.1-0.1v-33.3
	c2.3-1.3,3.6-3.3,4.3-5.1c0.7-1.9,0.8-3.6,0.8-4.6c0-0.4,0-0.7,0-0.7V154l-5.1-0.1v-22.8c2.3-1.3,3.6-3.3,4.3-5.1
	c0.7-1.9,0.8-3.6,0.8-4.6c0-0.4,0-0.7,0-0.7v-0.2l-5.1-0.1V91.1L62,54.7c1-0.3,1.4-0.5,1.7-0.7c0.2-0.1,0.3-0.2,0.4-0.4
	c0.1-0.1,0.2-0.3,0.4-0.4c0.4-0.5,0.5-1.3,0.5-1.3v-0.1l-0.4-0.2l-0.1-0.1l-0.1,0.1h-0.1c-0.3,0.2-1.4,1-2.5,1
	c-0.6,0-1.2-0.2-1.6-0.5s-0.7-0.9-0.7-1.7v-0.1c0-0.8,0.3-1.3,0.6-1.7c0.4-0.4,0.9-0.5,1.4-0.6h0.1c0.5,0,1,0.3,1.3,0.6
	c0.2,0.2,0.3,0.3,0.5,0.4c0.1,0.1,0.1,0.1,0.1,0.1l0,0l0,0l1.2,0.4l0.1-0.6v-0.1v-0.1c0,0-0.3-0.6-0.9-1.3c-0.6-0.6-1.5-1.3-2.7-1.3
	c-0.1,0-0.1,0-0.2,0c-0.9,0.1-1.9,0.2-2.7,0.8c-0.8,0.6-1.4,1.6-1.6,3.3c0,0.1,0,0.2,0,0.3c0,1,0.5,1.9,1.2,2.6
	c0.7,0.6,1.5,1,2.3,1.2l-6.8,36.5v29.6h-5.2v0.2l0,0c0,0.2,0,1.8,0.7,3.8s2,4.3,4.5,5.9v23.5h-5.2v0.2l0,0c0,0.1,0,1.8,0.7,3.8
	C49.7,160.1,51,162.5,53.5,164.1 M90.6,285.3c-0.6-0.4,0.6,0.4-1.5-0.7c0,0,2.6-1.6,2.6-4.7c0-3.4-2.4-5.5-6.6-5.5H74.5v19.3h6.1
	V287h3.9c2.9,0.6,1.2,2.8,2.2,6.6c0,0,3.8,0,6,0C91.4,292.7,93.4,287.1,90.6,285.3 M80.6,282.1c0.1-1.2,0-3.3,0-3.3
	c2.2,0.1,5.2-0.7,5.3,1.6C85.9,282.7,82,282,80.6,282.1 M119.1,274.4H113v19.3h15v-3.9h-8.8L119.1,274.4L119.1,274.4z M100.4,285.9
	h7.7V282h-7.7v-3.9h9.4v-3.9H94.4v19.3h16v-3.9h-9.9L100.4,285.9L100.4,285.9L100.4,285.9z"/>
<g>
	<path class="st1" d="M231.3,60.4h15.2v82h-15.2V60.4z"/>
	<path class="st1" d="M266.5,118.1c1.4,8.5,6,13.1,13.7,13.1c7,0,12-4.4,12-10.9c0-3.6-1.9-6.8-5.3-8.4c-1.1-0.7-3.5-1.4-7.5-3
		c-2.6-0.9-4.1-1.4-4.3-1.4c-1.4-0.7-3.3-1.3-5.4-2.3c-2.6-1.1-4.7-2.1-6.4-3.3c-5.4-3.6-8.7-10.3-8.7-17.5
		c0-14.9,11.3-25.6,26.9-25.6c9.8,0,17.2,3.7,21.8,10.9c1.8,3.1,2.6,5.2,3.3,10.7l-14,3.6c-1.1-7.6-5.4-12.1-11.8-12.1
		s-11.1,4.4-11.1,10.3c0,2.5,1,4.6,2.7,6.4c0.9,0.8,1.7,1.4,3,1.9c1.4,0.6,4.9,1.9,7.7,3l4.3,1.4c4,1.4,8.6,3.6,11.4,5.5
		c5.4,3.8,8.7,10.4,8.7,17.8c0,15.1-12.1,26.2-28.3,26.2c-10.6,0-18.8-4-24.2-11.9c-2.1-3.1-3-5.2-4.2-10.8L266.5,118.1z"/>
	<path class="st1" d="M312.6,60.4h15.2v69h32.9v12.9h-48.1V60.4L312.6,60.4z"/>
	<path class="st1" d="M386.6,60.4h19.2l23.3,82h-16l-5.6-19.7h-24l-5.6,19.7h-15.1L386.6,60.4z M386.5,110.9h18.3l-6.6-24.6
		c-0.5-1.4-0.9-3.2-1.3-4.9c-0.7-3.4-1-5.6-1.4-10.6c-0.5,5-0.8,6.9-1.4,10.6c-0.3,1.8-0.8,3.3-1.2,4.9L386.5,110.9z"/>
	<path class="st1" d="M431.1,60.4h25l11.1,48.6c0.3,1.3,0.6,2.6,0.8,4.1c0.8,4.1,1,6.5,1.4,12.3c0.2-6.2,0.6-8.8,1.2-12.2
		c0.1-0.8,0.7-2.5,1-4.2l11-48.6h25.5v82h-14.7V83.3c0-1.5,0-2.8,0.1-5.5c0.1-4,0.2-5.2,0.3-9.4l-1.1,4.6l-1.1,4.6l-1.3,5.5
		l-13.8,59.2h-14l-13.9-59.2c-0.3-1.4-0.9-3.4-1.2-5.5c-0.7-3.2-1-4.9-1.8-9.2c0.1,4.1,0.2,7.1,0.2,9.2c0.1,2.7,0.1,4.4,0.1,5.1v0.4
		v59.2h-14.6L431.1,60.4L431.1,60.4z"/>
	<path class="st1" d="M514.7,60.4h15.2v82h-15.2V60.4z"/>
	<path class="st1" d="M581.8,88.8c-1.4-11-6.4-17.1-14.5-17.1c-11,0-16.8,10.6-16.8,31.3c0,20.3,5.8,30.4,17,30.4
		c8.4,0,13.5-5.7,15.2-17.7l14.3,1.9c-3.3,17.8-13.9,27.3-29.9,27.3c-20.3,0-32.8-15.8-32.8-41.6c0-26.7,12.9-43.5,33.3-43.5
		c8.8,0,17,3.7,22.3,9.9c3.6,4.4,5.6,9.4,7,16.5L581.8,88.8z"/>
	<path class="st1" d="M231.3,154.9h27.6c4.5,0,7.3,0.1,9.7,0.5c11.2,1.4,19.2,11.1,19.2,23c0,9.9-5.1,17.6-14.3,20.8l16.4,37.5
		h-16.4l-14-34.5h-13.2v34.5h-15.1L231.3,154.9L231.3,154.9z M246.3,190.1h12.1c6.2,0,9-0.6,11.2-2.6c2.3-1.8,3.8-5.1,3.8-8.6
		c0-5.8-3.5-9.8-9-10.7c-1.7-0.5-3.8-0.6-5.9-0.6h-12.1L246.3,190.1L246.3,190.1z"/>
	<path class="st1" d="M293.9,154.9H343v13.3h-34v20.5h27.7v12.9H309V224h35.9v12.7h-51V154.9L293.9,154.9z"/>
	<path class="st1" d="M349.1,154.9h15.1v68.9h32.9v12.9H349L349.1,154.9L349.1,154.9z"/>
	<path class="st1" d="M402.4,154.9h15.2v81.8h-15.2V154.9z"/>
	<path class="st1" d="M426.8,154.9H476v13.3h-34.1v20.5h27.7v12.9h-27.7V224h36v12.7h-51L426.8,154.9L426.8,154.9z"/>
	<path class="st1" d="M482,154.9h48.2v13.4H497v20.6h25.6V202h-25.5v34.7H482V154.9z"/>
</g>
<g>
	<path class="st1" d="M231.2,249.4h15l7,46.1l8.7-46.1h13.4l8.2,46.4l8.2-46.4h12.3l-14.3,67h-13.1l-8.9-46.3l-9.1,46.3h-13
		L231.2,249.4z"/>
	<path class="st1" d="M353.6,282.7c0,22.9-8.1,34.4-24.2,34.4c-8,0-14-2.9-18.1-8.8c-4.1-5.8-6.1-14.4-6.1-25.6
		c0-22.9,8.1-34.3,24.2-34.3c7.9,0,13.9,2.9,18,8.6C351.5,262.7,353.6,271.3,353.6,282.7z M338.1,282.7c0-9-0.7-15-2.1-17.9
		c-1.4-3-3.6-4.5-6.7-4.5c-3,0-5.2,1.5-6.6,4.5c-1.4,3-2.1,9-2.1,17.9c0,8.8,0.7,14.7,2.1,17.8c1.4,3.1,3.6,4.6,6.7,4.6
		c3,0,5.2-1.5,6.7-4.4C337.4,297.8,338.1,291.8,338.1,282.7z"/>
	<path class="st1" d="M361.8,249.4h20.9c4.1,0,7.2,0.2,9.4,0.6c2.2,0.4,4.4,1.4,6.6,3c2.2,1.6,3.9,3.9,5.2,6.7
		c1.3,2.8,1.9,6,1.9,9.6c0,8.3-3.1,14.2-9.4,17.6l12.3,29.2h-15.9l-8.9-26.4h-7.3v26.4h-14.6V249.4z M376.4,260.2v18.7h6.4
		c5.7,0,8.6-3.2,8.6-9.6c0-2.2-0.4-4-1.3-5.4c-0.8-1.4-1.8-2.4-3-2.9c-1.1-0.5-2.8-0.8-5-0.8H376.4z"/>
	<path class="st1" d="M414.3,249.4h14.6v54.2h21.5v12.5h-36.1V249.4z"/>
	<path class="st1" d="M454.8,249.4h15.8c6.8,0,12.4,0.9,16.7,2.8c4.3,1.8,7.7,5.2,10.3,10.2c2.6,4.9,3.9,11.6,3.9,20.1
		c0,6-0.8,11.3-2.3,15.9s-3.6,8.3-6.2,11c-2.5,2.7-5.4,4.5-8.6,5.4c-3.2,0.9-7.2,1.4-12,1.4h-17.5V249.4z M469.5,260.8v43.8h2.5
		c3.4,0,6-0.7,7.9-2s3.3-3.6,4.5-6.8c1.1-3.2,1.7-7.9,1.7-14.1c0-5.7-0.6-10-1.8-13.1c-1.2-3.1-2.8-5.1-4.6-6.2
		c-1.8-1.1-4.4-1.6-7.6-1.6H469.5z"/>
	<path class="st1" d="M502.2,249.4h15l7,46.1l8.7-46.1h13.4l8.2,46.4l8.2-46.4h12.3l-14.3,67h-13.1l-8.9-46.3l-9.1,46.3h-13
		L502.2,249.4z"/>
	<path class="st1" d="M578.6,249.4h14.6v66.7h-14.6V249.4z"/>
	<path class="st1" d="M603.8,249.4h15.8c6.8,0,12.4,0.9,16.7,2.8c4.3,1.8,7.7,5.2,10.3,10.2c2.6,4.9,3.9,11.6,3.9,20.1
		c0,6-0.8,11.3-2.3,15.9s-3.6,8.3-6.2,11c-2.5,2.7-5.4,4.5-8.6,5.4c-3.2,0.9-7.2,1.4-12,1.4h-17.5V249.4z M618.5,260.8v43.8h2.5
		c3.4,0,6-0.7,7.9-2s3.3-3.6,4.5-6.8c1.1-3.2,1.7-7.9,1.7-14.1c0-5.7-0.6-10-1.8-13.1c-1.2-3.1-2.8-5.1-4.6-6.2
		c-1.8-1.1-4.4-1.6-7.6-1.6H618.5z"/>
	<path class="st1" d="M658,249.4h40.5v11.4h-25.9v15.5h20.1v11.4h-20.1v16.4h25.9v11.9H658V249.4z"/>
</g>
</svg>
